{
  "accessors": [
    {
      "bufferView": 2,
      "componentType": 5126,
      "count": 2033,
      "max": [
        0.6145089864730835,
        0.20116299390792847,
        2.123126983642578
      ],
      "min": [
        -0.5890840291976929,
        -0.34865400195121765,
        -0.022588999941945076
      ],
      "type": "VEC3"
    },
    {
      "bufferView": 2,
      "byteOffset": 24396,
      "componentType": 5126,
      "count": 2033,
      "max": [
        0.9996225237846375,
        0.9992865324020386,
        0.9959896802902222
      ],
      "min": [
        -0.9968894124031067,
        -0.9992226362228394,
        -0.9999740123748779
      ],
      "type": "VEC3"
    },
    {
      "bufferView": 3,
      "componentType": 5126,
      "count": 2033,
      "max": [
        1.0,
        0.9998072981834412,
        0.9884488582611084,
        1.0
      ],
      "min": [
        -0.9999970197677612,
        -0.9995535612106323,
        -0.9900513887405396,
        -1.0
      ],
      "type": "VEC4"
    },
    {
      "bufferView": 1,
      "componentType": 5126,
      "count": 2033,
      "max": [
        0.9919379949569702,
        0.9916239976882935
      ],
      "min": [
        0.009080000221729279,
        0.15966300666332245
      ],
      "type": "VEC2"
    },
    {
      "bufferView": 0,
      "componentType": 5125,
      "count": 4656,
      "type": "SCALAR"
    },
    {
      "bufferView": 2,
      "byteOffset": 48792,
      "componentType": 5126,
      "count": 4,
      "max": [
        0.2317190021276474,
        0.1196959987282753,
        1.6270990371704102
      ],
      "min": [
        0.20113800466060638,
        -0.09493599832057953,
        1.4977049827575684
      ],
      "type": "VEC3"
    },
    {
      "bufferView": 2,
      "byteOffset": 48840,
      "componentType": 5126,
      "count": 4,
      "max": [
        0.9939690232276917,
        0.5512048006057739,
        -0.05324000120162964
      ],
      "min": [
        0.7646036744117737,
        -0.2758639454841614,
        -0.3339978754520416
      ],
      "type": "VEC3"
    },
    {
      "bufferView": 1,
      "byteOffset": 16264,
      "componentType": 5126,
      "count": 4,
      "max": [
        0.4718320071697235,
        0.4000599980354309
      ],
      "min": [
        0.40324199199676514,
        0.3591899871826172
      ],
      "type": "VEC2"
    },
    {
      "bufferView": 0,
      "byteOffset": 18624,
      "componentType": 5125,
      "count": 6,
      "type": "SCALAR"
    },
    {
      "bufferView": 2,
      "byteOffset": 48888,
      "componentType": 5126,
      "count": 3,
      "max": [
        -0.22992399334907532,
        0.1146090030670166,
        1.588384985923767
      ],
      "min": [
        -0.2471179962158203,
        -0.013296999968588352,
        1.4887210130691528
      ],
      "type": "VEC3"
    },
    {
      "bufferView": 2,
      "byteOffset": 48924,
      "componentType": 5126,
      "count": 3,
      "max": [
        0.9709604978561401,
        -0.12186094373464584,
        0.2058779001235962
      ],
      "min": [
        0.9709604978561401,
        -0.12186094373464584,
        0.2058779001235962
      ],
      "type": "VEC3"
    },
    {
      "bufferView": 3,
      "byteOffset": 32528,
      "componentType": 5126,
      "count": 3,
      "max": [
        -0.22969572246074677,
        -0.7154858708381653,
        0.6597877144813538,
        -1.0
      ],
      "min": [
        -0.22969572246074677,
        -0.7154858708381653,
        0.6597877144813538,
        -1.0
      ],
      "type": "VEC4"
    },
    {
      "bufferView": 1,
      "byteOffset": 16296,
      "componentType": 5126,
      "count": 3,
      "max": [
        0.15432000160217285,
        0.4000599980354309
      ],
      "min": [
        0.12892299890518188,
        0.3591899871826172
      ],
      "type": "VEC2"
    },
    {
      "bufferView": 0,
      "byteOffset": 18648,
      "componentType": 5125,
      "count": 3,
      "type": "SCALAR"
    }
  ],
  "asset": {
    "extras": {
      "author": "JCarpenter_48 (https://sketchfab.com/jcarpenter48)",
      "license": "CC-BY-4.0 (http://creativecommons.org/licenses/by/4.0/)",
      "source": "https://sketchfab.com/3d-models/neimoidian-gunnery-battalion-soldier-2d41da08edff47c4a7912a7e3fe92819",
      "title": "Neimoidian Gunnery Battalion Soldier"
    },
    "generator": "Sketchfab-12.66.0",
    "version": "2.0"
  },
  "bufferViews": [
    {
      "buffer": 0,
      "byteLength": 18660,
      "name": "floatBufferViews",
      "target": 34963
    },
    {
      "buffer": 0,
      "byteLength": 16320,
      "byteOffset": 18660,
      "byteStride": 8,
      "name": "floatBufferViews",
      "target": 34962
    },
    {
      "buffer": 0,
      "byteLength": 48960,
      "byteOffset": 34980,
      "byteStride": 12,
      "name": "floatBufferViews",
      "target": 34962
    },
    {
      "buffer": 0,
      "byteLength": 32576,
      "byteOffset": 83940,
      "byteStride": 16,
      "name": "floatBufferViews",
      "target": 34962
    }
  ],
  "buffers": [
    {
      "byteLength": 116516,
      "uri": "scene.bin"
    }
  ],
  "images": [
    {
      "uri": "textures/Polygon1_XSIPOLYCLS.statue3_baseColor.png"
    },
    {
      "uri": "textures/Polygon1_XSIPOLYCLS.statue3_normal.png"
    }
  ],
  "materials": [
    {
      "doubleSided": true,
      "name": "Polygon1_XSIPOLYCLS.statue3",
      "normalTexture": {
        "index": 1
      },
      "pbrMetallicRoughness": {
        "baseColorTexture": {
          "index": 0
        },
        "metallicFactor": 0.0,
        "roughnessFactor": 0.6963629723289189
      }
    },
    {
      "doubleSided": true,
      "name": "Polygon2_XSIPOLYCLS.statue3",
      "pbrMetallicRoughness": {
        "baseColorFactor": [
          0.0,
          0.0,
          0.0,
          1.0
        ],
        "metallicFactor": 0.0,
        "roughnessFactor": 0.6
      }
    },
    {
      "doubleSided": true,
      "name": "Polygon_XSIPOLYCLS.statue3",
      "normalTexture": {
        "index": 1
      },
      "pbrMetallicRoughness": {
        "metallicFactor": 0.0,
        "roughnessFactor": 0.6
      }
    }
  ],
  "meshes": [
    {
      "name": "Object_0",
      "primitives": [
        {
          "attributes": {
            "NORMAL": 1,
            "POSITION": 0,
            "TANGENT": 2,
            "TEXCOORD_0": 3
          },
          "indices": 4,
          "material": 0,
          "mode": 4
        }
      ]
    },
    {
      "name": "Object_1",
      "primitives": [
        {
          "attributes": {
            "NORMAL": 6,
            "POSITION": 5,
            "TEXCOORD_0": 7
          },
          "indices": 8,
          "material": 1,
          "mode": 4
        }
      ]
    },
    {
      "name": "Object_2",
      "primitives": [
        {
          "attributes": {
            "NORMAL": 10,
            "POSITION": 9,
            "TANGENT": 11,
            "TEXCOORD_0": 12
          },
          "indices": 13,
          "material": 2,
          "mode": 4
        }
      ]
    }
  ],
  "nodes": [
    {
      "children": [
        1
      ],
      "matrix": [
        1.0,
        0.0,
        0.0,
        0.0,
        0.0,
        2.220446049250313e-16,
        -1.0,
        0.0,
        0.0,
        1.0,
        2.220446049250313e-16,
        0.0,
        0.0,
        0.0,
        0.0,
        1.0
      ],
      "name": "Sketchfab_model"
    },
    {
      "children": [
        2,
        3,
        4
      ],
      "name": "bf3neimoidian.obj.cleaner.materialmerger.gles"
    },
    {
      "mesh": 0,
      "name": "Object_2"
    },
    {
      "mesh": 1,
      "name": "Object_3"
    },
    {
      "mesh": 2,
      "name": "Object_4"
    }
  ],
  "samplers": [
    {
      "magFilter": 9729,
      "minFilter": 9987,
      "wrapS": 10497,
      "wrapT": 10497
    }
  ],
  "scene": 0,
  "scenes": [
    {
      "name": "Sketchfab_Scene",
      "nodes": [
        0
      ]
    }
  ],
  "textures": [
    {
      "sampler": 0,
      "source": 0
    },
    {
      "sampler": 0,
      "source": 1
    }
  ]
}
