{
  "accessors": [
    {
      "bufferView": 2,
      "componentType": 5126,
      "count": 2409,
      "max": [
        0.07614488899707794,
        1.3913670778274536,
        1.3913670778274536
      ],
      "min": [
        -0.07633087784051895,
        -1.3913670778274536,
        -1.3913670778274536
      ],
      "type": "VEC3"
    },
    {
      "bufferView": 2,
      "byteOffset": 28908,
      "componentType": 5126,
      "count": 2409,
      "max": [
        0.9999967813491821,
        0.9992220997810364,
        0.9992217421531677
      ],
      "min": [
        -0.9999794960021973,
        -0.9992220997810364,
        -0.999221920967102
      ],
      "type": "VEC3"
    },
    {
      "bufferView": 3,
      "componentType": 5126,
      "count": 2409,
      "max": [
        0.9951395392417908,
        0.9998446702957153,
        0.9999794363975525,
        1.0
      ],
      "min": [
        -0.9992223381996155,
        -0.9999967217445374,
        -0.9999967217445374,
        1.0
      ],
      "type": "VEC4"
    },
    {
      "bufferView": 1,
      "componentType": 5126,
      "count": 2409,
      "max": [
        0.09383772313594818,
        0.5880168080329895
      ],
      "min": [
        0.06659705936908722,
        0.001508887391537428
      ],
      "type": "VEC2"
    },
    {
      "bufferView": 0,
      "componentType": 5125,
      "count": 13824,
      "type": "SCALAR"
    },
    {
      "bufferView": 2,
      "byteOffset": 57816,
      "componentType": 5126,
      "count": 2409,
      "max": [
        0.03411377966403961,
        0.7757166624069214,
        0.7757166624069214
      ],
      "min": [
        -0.03411377966403961,
        -0.7757166624069214,
        -0.7757166624069214
      ],
      "type": "VEC3"
    },
    {
      "bufferView": 2,
      "byteOffset": 86724,
      "componentType": 5126,
      "count": 2409,
      "max": [
        0.9999963641166687,
        1.0,
        1.0
      ],
      "min": [
        -0.9999963641166687,
        -1.0,
        -1.0
      ],
      "type": "VEC3"
    },
    {
      "bufferView": 3,
      "byteOffset": 38544,
      "componentType": 5126,
      "count": 2409,
      "max": [
        0.021820267662405968,
        1.0,
        1.0,
        1.0
      ],
      "min": [
        -0.021820316091179848,
        -1.0,
        -1.0,
        1.0
      ],
      "type": "VEC4"
    },
    {
      "bufferView": 1,
      "byteOffset": 19272,
      "componentType": 5126,
      "count": 2409,
      "max": [
        0.6196193099021912,
        0.5781987309455872
      ],
      "min": [
        0.2557070553302765,
        0.5614725351333618
      ],
      "type": "VEC2"
    },
    {
      "bufferView": 0,
      "byteOffset": 55296,
      "componentType": 5125,
      "count": 13824,
      "type": "SCALAR"
    },
    {
      "bufferView": 2,
      "byteOffset": 115632,
      "componentType": 5126,
      "count": 35,
      "max": [
        1.1124365329742432,
        0.6978334784507751,
        0.6957808136940002
      ],
      "min": [
        0.6629841327667236,
        -0.6985231637954712,
        -0.7005758285522461
      ],
      "type": "VEC3"
    },
    {
      "bufferView": 2,
      "byteOffset": 116052,
      "componentType": 5126,
      "count": 35,
      "max": [
        0.9000407457351685,
        0.5337244868278503,
        0.5383865833282471
      ],
      "min": [
        0.8178822994232178,
        -0.534214973449707,
        -0.5296407341957092
      ],
      "type": "VEC3"
    },
    {
      "bufferView": 3,
      "byteOffset": 77088,
      "componentType": 5126,
      "count": 35,
      "max": [
        0.4350093603134155,
        0.8902807831764221,
        0.869450032711029,
        1.0
      ],
      "min": [
        -0.5732491612434387,
        -0.9083360433578491,
        -0.8926236629486084,
        1.0
      ],
      "type": "VEC4"
    },
    {
      "bufferView": 1,
      "byteOffset": 38544,
      "componentType": 5126,
      "count": 35,
      "max": [
        0.7125271558761597,
        0.4768860936164856
      ],
      "min": [
        0.09685307741165161,
        0.0015009865164756775
      ],
      "type": "VEC2"
    },
    {
      "bufferView": 0,
      "byteOffset": 110592,
      "componentType": 5125,
      "count": 114,
      "type": "SCALAR"
    },
    {
      "bufferView": 2,
      "byteOffset": 116472,
      "componentType": 5126,
      "count": 178,
      "max": [
        1.0016900375831028e-07,
        1.3267786502838135,
        1.3267786502838135
      ],
      "min": [
        -0.061884500086307526,
        -1.3267786502838135,
        -1.3267786502838135
      ],
      "type": "VEC3"
    },
    {
      "bufferView": 2,
      "byteOffset": 118608,
      "componentType": 5126,
      "count": 178,
      "max": [
        0.6913971304893494,
        0.7224751710891724,
        0.7224752902984619
      ],
      "min": [
        -0.6913971900939941,
        -0.7224753499031067,
        -0.7224751710891724
      ],
      "type": "VEC3"
    },
    {
      "bufferView": 3,
      "byteOffset": 77648,
      "componentType": 5126,
      "count": 178,
      "max": [
        0.7186782956123352,
        0.9998642802238464,
        0.9998642802238464,
        1.0
      ],
      "min": [
        -0.7186652421951294,
        -0.9998642802238464,
        -0.9998642802238464,
        1.0
      ],
      "type": "VEC4"
    },
    {
      "bufferView": 1,
      "byteOffset": 38824,
      "componentType": 5126,
      "count": 178,
      "max": [
        0.6269450187683105,
        0.8852396011352539
      ],
      "min": [
        0.0015090897213667631,
        0.0014989663613960147
      ],
      "type": "VEC2"
    },
    {
      "bufferView": 0,
      "byteOffset": 111048,
      "componentType": 5125,
      "count": 516,
      "type": "SCALAR"
    },
    {
      "bufferView": 2,
      "byteOffset": 120744,
      "componentType": 5126,
      "count": 1342,
      "max": [
        0.04407486692070961,
        1.474799633026123,
        0.5905820727348328
      ],
      "min": [
        -1.7770857141385932e-07,
        -0.9833752512931824,
        -1.8623976707458496
      ],
      "type": "VEC3"
    },
    {
      "bufferView": 2,
      "byteOffset": 136848,
      "componentType": 5126,
      "count": 1342,
      "max": [
        0.9537650942802429,
        0.8964314460754395,
        0.8995517492294312
      ],
      "min": [
        -0.9528151154518127,
        -0.9085015654563904,
        -0.9383131265640259
      ],
      "type": "VEC3"
    },
    {
      "bufferView": 3,
      "byteOffset": 80496,
      "componentType": 5126,
      "count": 1342,
      "max": [
        0.9349398612976074,
        0.9994446635246277,
        0.9991573095321655,
        1.0
      ],
      "min": [
        -0.9342631101608276,
        -0.9997955560684204,
        -0.9998922944068909,
        -1.0
      ],
      "type": "VEC4"
    },
    {
      "bufferView": 1,
      "byteOffset": 40248,
      "componentType": 5126,
      "count": 1342,
      "max": [
        0.987532913684845,
        0.9144730567932129
      ],
      "min": [
        0.0015060007572174072,
        0.0015031266957521439
      ],
      "type": "VEC2"
    },
    {
      "bufferView": 0,
      "byteOffset": 113112,
      "componentType": 5125,
      "count": 3720,
      "type": "SCALAR"
    },
    {
      "bufferView": 2,
      "byteOffset": 152952,
      "componentType": 5126,
      "count": 1118,
      "max": [
        0.03524424508213997,
        0.3705976605415344,
        0.3716368079185486
      ],
      "min": [
        -0.03524424508213997,
        -0.3705976605415344,
        -0.3716368079185486
      ],
      "type": "VEC3"
    },
    {
      "bufferView": 2,
      "byteOffset": 166368,
      "componentType": 5126,
      "count": 1118,
      "max": [
        0.9976353645324707,
        0.9972038865089417,
        1.0
      ],
      "min": [
        -0.9976353645324707,
        -0.9972037672996521,
        -1.0
      ],
      "type": "VEC3"
    },
    {
      "bufferView": 3,
      "byteOffset": 101968,
      "componentType": 5126,
      "count": 1118,
      "max": [
        1.0,
        0.9966418147087097,
        0.9974043369293213,
        1.0
      ],
      "min": [
        -0.9920202493667603,
        -0.9966418147087097,
        -0.9976352453231812,
        1.0
      ],
      "type": "VEC4"
    },
    {
      "bufferView": 1,
      "byteOffset": 50984,
      "componentType": 5126,
      "count": 1118,
      "max": [
        0.0635785460472107,
        0.5939307808876038
      ],
      "min": [
        0.0015001698629930615,
        0.0015068920329213142
      ],
      "type": "VEC2"
    },
    {
      "bufferView": 0,
      "byteOffset": 127992,
      "componentType": 5125,
      "count": 6300,
      "type": "SCALAR"
    },
    {
      "bufferView": 2,
      "byteOffset": 179784,
      "componentType": 5126,
      "count": 40825,
      "max": [
        0.16578730940818787,
        2.8973305225372314,
        7.694819450378418
      ],
      "min": [
        -0.16366888582706451,
        -3.7635867595672607,
        -0.12632045149803162
      ],
      "type": "VEC3"
    },
    {
      "bufferView": 2,
      "byteOffset": 669684,
      "componentType": 5126,
      "count": 40825,
      "max": [
        0.9975475668907166,
        0.9999992251396179,
        0.9999940991401672
      ],
      "min": [
        -0.9975504279136658,
        -0.999997615814209,
        -0.9999939203262329
      ],
      "type": "VEC3"
    },
    {
      "bufferView": 3,
      "byteOffset": 119856,
      "componentType": 5126,
      "count": 40825,
      "max": [
        0.9999997615814209,
        0.9998805522918701,
        0.9999923706054688,
        1.0
      ],
      "min": [
        -0.9999997615814209,
        -0.9999977946281433,
        -0.9999996423721313,
        1.0
      ],
      "type": "VEC4"
    },
    {
      "bufferView": 1,
      "byteOffset": 59928,
      "componentType": 5126,
      "count": 40825,
      "max": [
        0.99327152967453,
        0.9984978437423706
      ],
      "min": [
        0.0015065670013427734,
        0.027593791484832764
      ],
      "type": "VEC2"
    },
    {
      "bufferView": 0,
      "byteOffset": 153192,
      "componentType": 5125,
      "count": 224928,
      "type": "SCALAR"
    },
    {
      "bufferView": 2,
      "byteOffset": 1159584,
      "componentType": 5126,
      "count": 20308,
      "max": [
        0.09143750369548798,
        1.9150949716567993,
        0.38506564497947693
      ],
      "min": [
        -0.07216227054595947,
        -2.0066325664520264,
        -3.5377843379974365
      ],
      "type": "VEC3"
    },
    {
      "bufferView": 2,
      "byteOffset": 1403280,
      "componentType": 5126,
      "count": 20308,
      "max": [
        0.999995231628418,
        0.9999504089355469,
        0.9998924136161804
      ],
      "min": [
        -0.9999985694885254,
        -0.9998927116394043,
        -0.9998536705970764
      ],
      "type": "VEC3"
    },
    {
      "bufferView": 3,
      "byteOffset": 773056,
      "componentType": 5126,
      "count": 20308,
      "max": [
        0.9999570846557617,
        0.9999876022338867,
        0.9999525547027588,
        1.0
      ],
      "min": [
        -0.9998623132705688,
        -0.9999948143959045,
        -0.9999773502349854,
        -1.0
      ],
      "type": "VEC4"
    },
    {
      "bufferView": 1,
      "byteOffset": 386528,
      "componentType": 5126,
      "count": 20308,
      "max": [
        0.9324384927749634,
        0.9322593212127686
      ],
      "min": [
        0.0015112216351553798,
        0.001502803759649396
      ],
      "type": "VEC2"
    },
    {
      "bufferView": 0,
      "byteOffset": 1052904,
      "componentType": 5125,
      "count": 115374,
      "type": "SCALAR"
    }
  ],
  "asset": {
    "extras": {
      "author": "Horizzon (https://sketchfab.com/Horizzon)",
      "license": "CC-BY-4.0 (http://creativecommons.org/licenses/by/4.0/)",
      "source": "https://sketchfab.com/3d-models/amulet-81d7e66ec37e4b8f936c0c2a532889ee",
      "title": "Amulet"
    },
    "generator": "Sketchfab-13.78.0",
    "version": "2.0"
  },
  "bufferViews": [
    {
      "buffer": 0,
      "byteLength": 1514400,
      "name": "floatBufferViews",
      "target": 34963
    },
    {
      "buffer": 0,
      "byteLength": 548992,
      "byteOffset": 1514400,
      "byteStride": 8,
      "name": "floatBufferViews",
      "target": 34962
    },
    {
      "buffer": 0,
      "byteLength": 1646976,
      "byteOffset": 2063392,
      "byteStride": 12,
      "name": "floatBufferViews",
      "target": 34962
    },
    {
      "buffer": 0,
      "byteLength": 1097984,
      "byteOffset": 3710368,
      "byteStride": 16,
      "name": "floatBufferViews",
      "target": 34962
    }
  ],
  "buffers": [
    {
      "byteLength": 4808352,
      "uri": "scene.bin"
    }
  ],
  "images": [
    {
      "uri": "textures/amulet_baseColor.png"
    },
    {
      "uri": "textures/amulet_metallicRoughness.png"
    },
    {
      "uri": "textures/amulet_normal.png"
    }
  ],
  "materials": [
    {
      "doubleSided": true,
      "name": "amulet",
      "normalTexture": {
        "index": 2
      },
      "occlusionTexture": {
        "index": 1
      },
      "pbrMetallicRoughness": {
        "baseColorTexture": {
          "index": 0
        },
        "metallicRoughnessTexture": {
          "index": 1
        }
      }
    }
  ],
  "meshes": [
    {
      "name": "Torus.003_Low_amulet_0",
      "primitives": [
        {
          "attributes": {
            "NORMAL": 1,
            "POSITION": 0,
            "TANGENT": 2,
            "TEXCOORD_0": 3
          },
          "indices": 4,
          "material": 0,
          "mode": 4
        }
      ]
    },
    {
      "name": "Torus.005_Low_amulet_0",
      "primitives": [
        {
          "attributes": {
            "NORMAL": 6,
            "POSITION": 5,
            "TANGENT": 7,
            "TEXCOORD_0": 8
          },
          "indices": 9,
          "material": 0,
          "mode": 4
        }
      ]
    },
    {
      "name": "Cylinder.014_Low_amulet_0",
      "primitives": [
        {
          "attributes": {
            "NORMAL": 11,
            "POSITION": 10,
            "TANGENT": 12,
            "TEXCOORD_0": 13
          },
          "indices": 14,
          "material": 0,
          "mode": 4
        }
      ]
    },
    {
      "name": "Circle_Low_amulet_0",
      "primitives": [
        {
          "attributes": {
            "NORMAL": 16,
            "POSITION": 15,
            "TANGENT": 17,
            "TEXCOORD_0": 18
          },
          "indices": 19,
          "material": 0,
          "mode": 4
        }
      ]
    },
    {
      "name": "Plane.007_Low_amulet_0",
      "primitives": [
        {
          "attributes": {
            "NORMAL": 21,
            "POSITION": 20,
            "TANGENT": 22,
            "TEXCOORD_0": 23
          },
          "indices": 24,
          "material": 0,
          "mode": 4
        }
      ]
    },
    {
      "name": "Torus.007_Low_amulet_0",
      "primitives": [
        {
          "attributes": {
            "NORMAL": 26,
            "POSITION": 25,
            "TANGENT": 27,
            "TEXCOORD_0": 28
          },
          "indices": 29,
          "material": 0,
          "mode": 4
        }
      ]
    },
    {
      "name": "Torus.016_Low_amulet_0",
      "primitives": [
        {
          "attributes": {
            "NORMAL": 31,
            "POSITION": 30,
            "TANGENT": 32,
            "TEXCOORD_0": 33
          },
          "indices": 34,
          "material": 0,
          "mode": 4
        }
      ]
    },
    {
      "name": "Plane.008_Low_amulet_0",
      "primitives": [
        {
          "attributes": {
            "NORMAL": 36,
            "POSITION": 35,
            "TANGENT": 37,
            "TEXCOORD_0": 38
          },
          "indices": 39,
          "material": 0,
          "mode": 4
        }
      ]
    }
  ],
  "nodes": [
    {
      "children": [
        1
      ],
      "matrix": [
        1.0,
        -1.608122622957729e-16,
        -1.6081226229577294e-16,
        0.0,
        -1.6081226229577292e-16,
        3.828568672208042e-16,
        -1.0,
        0.0,
        1.6081226229577292e-16,
        1.0,
        3.828568672208042e-16,
        0.0,
        0.0,
        0.0,
        0.0,
        1.0
      ],
      "name": "Sketchfab_model"
    },
    {
      "children": [
        2
      ],
      "matrix": [
        0.009999999776482582,
        0.0,
        0.0,
        0.0,
        0.0,
        0.0,
        0.009999999776482582,
        0.0,
        0.0,
        -0.009999999776482582,
        0.0,
        0.0,
        0.0,
        0.0,
        0.0,
        1.0
      ],
      "name": "1f9985e237844c20889419bcd606205d.fbx"
    },
    {
      "children": [
        3,
        5,
        7,
        9,
        11,
        13,
        15,
        17
      ],
      "name": "RootNode"
    },
    {
      "children": [
        4
      ],
      "matrix": [
        100.0,
        0.0,
        0.0,
        0.0,
        0.0,
        -1.629206793918314e-05,
        -99.99999999999868,
        0.0,
        0.0,
        99.99999999999868,
        -1.629206793918314e-05,
        0.0,
        89.84054565429688,
        -0.02793148159980774,
        6.904207229614258,
        1.0
      ],
      "name": "Torus.003_Low"
    },
    {
      "mesh": 0,
      "name": "Torus.003_Low_amulet_0"
    },
    {
      "children": [
        6
      ],
      "matrix": [
        100.0,
        0.0,
        0.0,
        0.0,
        0.0,
        -1.629206793918314e-05,
        -99.99999999999868,
        0.0,
        0.0,
        99.99999999999868,
        -1.629206793918314e-05,
        0.0,
        92.98762512207031,
        -1.359929084777832,
        7.622225761413574,
        1.0
      ],
      "name": "Torus.005_Low"
    },
    {
      "mesh": 1,
      "name": "Torus.005_Low_amulet_0"
    },
    {
      "children": [
        8
      ],
      "matrix": [
        100.0,
        0.0,
        0.0,
        0.0,
        0.0,
        -1.629206793918314e-05,
        -99.99999999999868,
        0.0,
        0.0,
        99.99999999999868,
        -1.629206793918314e-05,
        0.0,
        23.24469757080078,
        -2.3375556468963623,
        7.236459732055664,
        1.0
      ],
      "name": "Cylinder.014_Low"
    },
    {
      "mesh": 2,
      "name": "Cylinder.014_Low_amulet_0"
    },
    {
      "children": [
        10
      ],
      "matrix": [
        100.0,
        0.0,
        0.0,
        0.0,
        0.0,
        -1.629206793918314e-05,
        -99.99999999999868,
        0.0,
        0.0,
        99.99999999999868,
        -1.629206793918314e-05,
        0.0,
        90.93086242675781,
        -2.0588197708129883,
        8.94467830657959,
        1.0
      ],
      "name": "Circle_Low"
    },
    {
      "mesh": 3,
      "name": "Circle_Low_amulet_0"
    },
    {
      "children": [
        12
      ],
      "matrix": [
        100.0,
        0.0,
        0.0,
        0.0,
        0.0,
        -1.629206793918314e-05,
        -99.99999999999868,
        0.0,
        0.0,
        99.99999999999868,
        -1.629206793918314e-05,
        0.0,
        90.78346252441406,
        61.324440002441406,
        28.774620056152344,
        1.0
      ],
      "name": "Plane.007_Low"
    },
    {
      "mesh": 4,
      "name": "Plane.007_Low_amulet_0"
    },
    {
      "children": [
        14
      ],
      "matrix": [
        100.0,
        0.0,
        0.0,
        0.0,
        0.0,
        -1.629206793918314e-05,
        -99.99999999999868,
        0.0,
        0.0,
        99.99999999999868,
        -1.629206793918314e-05,
        0.0,
        88.80014038085938,
        192.79112243652344,
        3.2829251289367676,
        1.0
      ],
      "name": "Torus.007_Low"
    },
    {
      "mesh": 5,
      "name": "Torus.007_Low_amulet_0"
    },
    {
      "children": [
        16
      ],
      "matrix": [
        100.0,
        0.0,
        0.0,
        0.0,
        0.0,
        -1.629206793918314e-05,
        -99.99999999999868,
        0.0,
        0.0,
        99.99999999999868,
        -1.629206793918314e-05,
        0.0,
        88.70169830322266,
        213.58013916015625,
        -27.26657485961914,
        1.0
      ],
      "name": "Torus.016_Low"
    },
    {
      "mesh": 6,
      "name": "Torus.016_Low_amulet_0"
    },
    {
      "children": [
        18
      ],
      "matrix": [
        100.0,
        0.0,
        0.0,
        0.0,
        0.0,
        -1.629206793918314e-05,
        -99.99999999999868,
        0.0,
        0.0,
        99.99999999999868,
        -1.629206793918314e-05,
        0.0,
        89.63664245605469,
        155.6466827392578,
        4.265707969665527,
        1.0
      ],
      "name": "Plane.008_Low"
    },
    {
      "mesh": 7,
      "name": "Plane.008_Low_amulet_0"
    }
  ],
  "samplers": [
    {
      "magFilter": 9729,
      "minFilter": 9987,
      "wrapS": 10497,
      "wrapT": 10497
    }
  ],
  "scene": 0,
  "scenes": [
    {
      "name": "Sketchfab_Scene",
      "nodes": [
        0
      ]
    }
  ],
  "textures": [
    {
      "sampler": 0,
      "source": 0
    },
    {
      "sampler": 0,
      "source": 1
    },
    {
      "sampler": 0,
      "source": 2
    }
  ]
}
