{
  "accessors": [
    {
      "bufferView": 2,
      "componentType": 5126,
      "count": 30,
      "max": [
        234.82989501953125,
        249.79164123535156,
        31.358375549316406
      ],
      "min": [
        -236.55490112304688,
        3.4679243981372565e-05,
        -64.65995788574219
      ],
      "type": "VEC3"
    },
    {
      "bufferView": 2,
      "byteOffset": 360,
      "componentType": 5126,
      "count": 30,
      "max": [
        0.9933967590332031,
        0.9935197234153748,
        -6.194254092406482e-05
      ],
      "min": [
        -0.9933967590332031,
        0.11473005264997482,
        -0.24736443161964417
      ],
      "type": "VEC3"
    },
    {
      "bufferView": 3,
      "componentType": 5126,
      "count": 30,
      "max": [
        0.9628919363021851,
        0.9932200908660889,
        0.9935197234153748,
        1.0
      ],
      "min": [
        -0.9628919363021851,
        0.11366056650876999,
        -0.09450864791870117,
        -1.0
      ],
      "type": "VEC4"
    },
    {
      "bufferView": 1,
      "componentType": 5126,
      "count": 30,
      "max": [
        0.7881916761398315,
        0.3433102071285248
      ],
      "min": [
        0.11158999800682068,
        0.1650168001651764
      ],
      "type": "VEC2"
    },
    {
      "bufferView": 0,
      "componentType": 5125,
      "count": 72,
      "type": "SCALAR"
    },
    {
      "bufferView": 2,
      "byteOffset": 720,
      "componentType": 5126,
      "count": 734,
      "max": [
        244.77944946289063,
        279.037353515625,
        564.575439453125
      ],
      "min": [
        -246.50445556640625,
        -47.210357666015625,
        -258.2505798339844
      ],
      "type": "VEC3"
    },
    {
      "bufferView": 2,
      "byteOffset": 9528,
      "componentType": 5126,
      "count": 734,
      "max": [
        1.0,
        0.999639630317688,
        1.0
      ],
      "min": [
        -1.0,
        -0.9996400475502014,
        -1.0
      ],
      "type": "VEC3"
    },
    {
      "bufferView": 1,
      "byteOffset": 240,
      "componentType": 5126,
      "count": 734,
      "max": [
        0.7881916761398315,
        0.999500036239624
      ],
      "min": [
        0.00017303611093666404,
        0.0005000000237487257
      ],
      "type": "VEC2"
    },
    {
      "bufferView": 0,
      "byteOffset": 288,
      "componentType": 5125,
      "count": 2022,
      "type": "SCALAR"
    },
    {
      "bufferView": 2,
      "byteOffset": 18336,
      "componentType": 5126,
      "count": 24,
      "max": [
        227.88365173339844,
        242.7916259765625,
        72.86546325683594
      ],
      "min": [
        -229.60865783691406,
        -0.865872323513031,
        9.719467163085938
      ],
      "type": "VEC3"
    },
    {
      "bufferView": 2,
      "byteOffset": 18624,
      "componentType": 5126,
      "count": 24,
      "max": [
        0.9924321174621582,
        1.0,
        9.407227480551228e-05
      ],
      "min": [
        -0.9924321174621582,
        0.12279293686151505,
        -0.056680042296648026
      ],
      "type": "VEC3"
    },
    {
      "bufferView": 1,
      "byteOffset": 6112,
      "componentType": 5126,
      "count": 24,
      "max": [
        0.2499999850988388,
        0.5
      ],
      "min": [
        0.00017858731735032052,
        0.5
      ],
      "type": "VEC2"
    },
    {
      "bufferView": 0,
      "byteOffset": 8376,
      "componentType": 5125,
      "count": 66,
      "type": "SCALAR"
    },
    {
      "bufferView": 2,
      "byteOffset": 18912,
      "componentType": 5126,
      "count": 8,
      "max": [
        133.9505615234375,
        279.037353515625,
        132.2993621826172
      ],
      "min": [
        -135.67556762695313,
        242.89279174804688,
        75.4231948852539
      ],
      "type": "VEC3"
    },
    {
      "bufferView": 2,
      "byteOffset": 19008,
      "componentType": 5126,
      "count": 8,
      "max": [
        0.3576744496822357,
        0.9991584420204163,
        0.1847286820411682
      ],
      "min": [
        -0.3576744496822357,
        0.9153929948806763,
        0.041019268333911896
      ],
      "type": "VEC3"
    },
    {
      "bufferView": 3,
      "byteOffset": 480,
      "componentType": 5126,
      "count": 8,
      "max": [
        0.9769558310508728,
        0.3580329418182373,
        0.9991583824157715,
        1.0
      ],
      "min": [
        -0.9769558310508728,
        -0.04101927578449249,
        0.03181415796279907,
        -1.0
      ],
      "type": "VEC4"
    },
    {
      "bufferView": 1,
      "byteOffset": 6304,
      "componentType": 5126,
      "count": 8,
      "max": [
        0.9528815746307373,
        0.7537775635719299
      ],
      "min": [
        0.03496912866830826,
        0.2854207158088684
      ],
      "type": "VEC2"
    },
    {
      "bufferView": 0,
      "byteOffset": 8640,
      "componentType": 5125,
      "count": 18,
      "type": "SCALAR"
    },
    {
      "bufferView": 2,
      "byteOffset": 19104,
      "componentType": 5126,
      "count": 20,
      "max": [
        131.65948486328125,
        260.9029846191406,
        289.159912109375
      ],
      "min": [
        -133.38449096679688,
        213.33352661132813,
        74.15629577636719
      ],
      "type": "VEC3"
    },
    {
      "bufferView": 2,
      "byteOffset": 19344,
      "componentType": 5126,
      "count": 20,
      "max": [
        0.38185760378837585,
        0.9360081553459167,
        0.1820400506258011
      ],
      "min": [
        -0.38185760378837585,
        0.9067831039428711,
        0.15098591148853302
      ],
      "type": "VEC3"
    },
    {
      "bufferView": 3,
      "byteOffset": 608,
      "componentType": 5126,
      "count": 20,
      "max": [
        0.9472214579582214,
        0.3905515968799591,
        0.004095159005373716,
        1.0
      ],
      "min": [
        -0.9472214579582214,
        0.3205799460411072,
        -0.01489014457911253,
        -1.0
      ],
      "type": "VEC4"
    },
    {
      "bufferView": 1,
      "byteOffset": 6368,
      "componentType": 5126,
      "count": 20,
      "max": [
        0.6257913112640381,
        0.9953848123550415
      ],
      "min": [
        0.1651090532541275,
        -0.0036152261309325695
      ],
      "type": "VEC2"
    },
    {
      "bufferView": 0,
      "byteOffset": 8712,
      "componentType": 5125,
      "count": 48,
      "type": "SCALAR"
    },
    {
      "bufferView": 2,
      "byteOffset": 19584,
      "componentType": 5126,
      "count": 24,
      "max": [
        36.31690216064453,
        274.2018737792969,
        549.4338989257813
      ],
      "min": [
        -38.041908264160156,
        196.47657775878906,
        124.45576477050781
      ],
      "type": "VEC3"
    },
    {
      "bufferView": 2,
      "byteOffset": 19872,
      "componentType": 5126,
      "count": 24,
      "max": [
        0.2409006655216217,
        0.9913033843040466,
        0.25016355514526367
      ],
      "min": [
        -0.24090100824832916,
        0.9396896958351135,
        0.1294248104095459
      ],
      "type": "VEC3"
    },
    {
      "bufferView": 3,
      "byteOffset": 928,
      "componentType": 5126,
      "count": 24,
      "max": [
        0.9836236238479614,
        0.2501635253429413,
        0.03418881073594093,
        1.0
      ],
      "min": [
        -0.9836235642433167,
        0.13159623742103577,
        -0.9913034439086914,
        -1.0
      ],
      "type": "VEC4"
    },
    {
      "bufferView": 1,
      "byteOffset": 6528,
      "componentType": 5126,
      "count": 24,
      "max": [
        0.5245866179466248,
        0.999500036239624
      ],
      "min": [
        0.43054115772247314,
        0.0005000000237487257
      ],
      "type": "VEC2"
    },
    {
      "bufferView": 0,
      "byteOffset": 8904,
      "componentType": 5125,
      "count": 84,
      "type": "SCALAR"
    }
  ],
  "asset": {
    "extras": {
      "author": "Anthony Yanez (https://sketchfab.com/paulyanez)",
      "license": "CC-BY-4.0 (http://creativecommons.org/licenses/by/4.0/)",
      "source": "https://sketchfab.com/3d-models/revans-mask-star-wars-2d459216f0da4cc5acd9e448405b88bd",
      "title": "Revan's Mask (Star Wars)"
    },
    "generator": "Sketchfab-12.66.0",
    "version": "2.0"
  },
  "bufferViews": [
    {
      "buffer": 0,
      "byteLength": 9240,
      "name": "floatBufferViews",
      "target": 34963
    },
    {
      "buffer": 0,
      "byteLength": 6720,
      "byteOffset": 9240,
      "byteStride": 8,
      "name": "floatBufferViews",
      "target": 34962
    },
    {
      "buffer": 0,
      "byteLength": 20160,
      "byteOffset": 15960,
      "byteStride": 12,
      "name": "floatBufferViews",
      "target": 34962
    },
    {
      "buffer": 0,
      "byteLength": 1312,
      "byteOffset": 36120,
      "byteStride": 16,
      "name": "floatBufferViews",
      "target": 34962
    }
  ],
  "buffers": [
    {
      "byteLength": 37432,
      "uri": "scene.bin"
    }
  ],
  "images": [
    {
      "uri": "textures/07_-_Default_baseColor.png"
    },
    {
      "uri": "textures/07_-_Default_normal.png"
    },
    {
      "uri": "textures/02_-_Default_baseColor.jpeg"
    },
    {
      "uri": "textures/09_-_Default_baseColor.png"
    },
    {
      "uri": "textures/09_-_Default_normal.png"
    },
    {
      "uri": "textures/13_-_Default_baseColor.png"
    },
    {
      "uri": "textures/13_-_Default_normal.png"
    },
    {
      "uri": "textures/08_-_Default_baseColor.png"
    },
    {
      "uri": "textures/08_-_Default_normal.png"
    }
  ],
  "materials": [
    {
      "doubleSided": true,
      "name": "07_-_Default",
      "normalTexture": {
        "index": 1
      },
      "pbrMetallicRoughness": {
        "baseColorTexture": {
          "index": 0
        },
        "roughnessFactor": 0.5
      }
    },
    {
      "doubleSided": true,
      "name": "02_-_Default",
      "pbrMetallicRoughness": {
        "baseColorTexture": {
          "index": 2
        },
        "roughnessFactor": 0.5
      }
    },
    {
      "doubleSided": true,
      "name": "03_-_Default",
      "pbrMetallicRoughness": {
        "baseColorFactor": [
          0.0,
          0.0,
          0.0,
          1.0
        ],
        "roughnessFactor": 0.0
      }
    },
    {
      "doubleSided": true,
      "name": "09_-_Default",
      "normalTexture": {
        "index": 4
      },
      "pbrMetallicRoughness": {
        "baseColorTexture": {
          "index": 3
        },
        "roughnessFactor": 0.5
      }
    },
    {
      "doubleSided": true,
      "name": "13_-_Default",
      "normalTexture": {
        "index": 6
      },
      "pbrMetallicRoughness": {
        "baseColorTexture": {
          "index": 5
        },
        "roughnessFactor": 0.5
      }
    },
    {
      "doubleSided": true,
      "name": "08_-_Default",
      "normalTexture": {
        "index": 8
      },
      "pbrMetallicRoughness": {
        "baseColorTexture": {
          "index": 7
        },
        "roughnessFactor": 0.5
      }
    }
  ],
  "meshes": [
    {
      "name": "Revans's Mask_07 - Default_0",
      "primitives": [
        {
          "attributes": {
            "NORMAL": 1,
            "POSITION": 0,
            "TANGENT": 2,
            "TEXCOORD_0": 3
          },
          "indices": 4,
          "material": 0,
          "mode": 4
        }
      ]
    },
    {
      "name": "Revans's Mask_02 - Default_0",
      "primitives": [
        {
          "attributes": {
            "NORMAL": 6,
            "POSITION": 5,
            "TEXCOORD_0": 7
          },
          "indices": 8,
          "material": 1,
          "mode": 4
        }
      ]
    },
    {
      "name": "Revans's Mask_03 - Default_0",
      "primitives": [
        {
          "attributes": {
            "NORMAL": 10,
            "POSITION": 9,
            "TEXCOORD_0": 11
          },
          "indices": 12,
          "material": 2,
          "mode": 4
        }
      ]
    },
    {
      "name": "Revans's Mask_09 - Default_0",
      "primitives": [
        {
          "attributes": {
            "NORMAL": 14,
            "POSITION": 13,
            "TANGENT": 15,
            "TEXCOORD_0": 16
          },
          "indices": 17,
          "material": 3,
          "mode": 4
        }
      ]
    },
    {
      "name": "Revans's Mask_13 - Default_0",
      "primitives": [
        {
          "attributes": {
            "NORMAL": 19,
            "POSITION": 18,
            "TANGENT": 20,
            "TEXCOORD_0": 21
          },
          "indices": 22,
          "material": 4,
          "mode": 4
        }
      ]
    },
    {
      "name": "Revans's Mask_08 - Default_0",
      "primitives": [
        {
          "attributes": {
            "NORMAL": 24,
            "POSITION": 23,
            "TANGENT": 25,
            "TEXCOORD_0": 26
          },
          "indices": 27,
          "material": 5,
          "mode": 4
        }
      ]
    }
  ],
  "nodes": [
    {
      "children": [
        1
      ],
      "matrix": [
        1.0,
        0.0,
        0.0,
        0.0,
        0.0,
        2.220446049250313e-16,
        -1.0,
        0.0,
        0.0,
        1.0,
        2.220446049250313e-16,
        0.0,
        0.0,
        0.0,
        0.0,
        1.0
      ],
      "name": "Sketchfab_model"
    },
    {
      "children": [
        2
      ],
      "matrix": [
        1.0,
        0.0,
        0.0,
        0.0,
        0.0,
        0.0,
        1.0,
        0.0,
        0.0,
        -1.0,
        0.0,
        0.0,
        0.0,
        0.0,
        0.0,
        1.0
      ],
      "name": "Revan's Mask.FBX"
    },
    {
      "children": [
        3
      ],
      "name": "RootNode"
    },
    {
      "children": [
        4,
        5,
        6,
        7,
        8,
        9
      ],
      "matrix": [
        1.0,
        0.0,
        0.0,
        0.0,
        0.0,
        -3.2584136966384847e-07,
        0.9999999999999469,
        0.0,
        0.0,
        -0.9999999999999469,
        -3.2584136966384847e-07,
        0.0,
        4.1942596435546875,
        220.06895446777344,
        9.619519914849661e-06,
        1.0
      ],
      "name": "Revans's Mask"
    },
    {
      "mesh": 0,
      "name": "Revans's Mask_07 - Default_0"
    },
    {
      "mesh": 1,
      "name": "Revans's Mask_02 - Default_0"
    },
    {
      "mesh": 2,
      "name": "Revans's Mask_03 - Default_0"
    },
    {
      "mesh": 3,
      "name": "Revans's Mask_09 - Default_0"
    },
    {
      "mesh": 4,
      "name": "Revans's Mask_13 - Default_0"
    },
    {
      "mesh": 5,
      "name": "Revans's Mask_08 - Default_0"
    }
  ],
  "samplers": [
    {
      "magFilter": 9729,
      "minFilter": 9987,
      "wrapS": 10497,
      "wrapT": 10497
    }
  ],
  "scene": 0,
  "scenes": [
    {
      "name": "Sketchfab_Scene",
      "nodes": [
        0
      ]
    }
  ],
  "textures": [
    {
      "sampler": 0,
      "source": 0
    },
    {
      "sampler": 0,
      "source": 1
    },
    {
      "sampler": 0,
      "source": 2
    },
    {
      "sampler": 0,
      "source": 3
    },
    {
      "sampler": 0,
      "source": 4
    },
    {
      "sampler": 0,
      "source": 5
    },
    {
      "sampler": 0,
      "source": 6
    },
    {
      "sampler": 0,
      "source": 7
    },
    {
      "sampler": 0,
      "source": 8
    }
  ]
}
