{
  "accessors": [
    {
      "bufferView": 2,
      "componentType": 5126,
      "count": 14206,
      "max": [
        107.98389434814453,
        51.29541015625,
        229.36077880859375
      ],
      "min": [
        -107.98404693603516,
        -127.95317077636719,
        35.820030212402344
      ],
      "type": "VEC3"
    },
    {
      "bufferView": 2,
      "byteOffset": 170472,
      "componentType": 5126,
      "count": 14206,
      "max": [
        1.0,
        1.0,
        1.0
      ],
      "min": [
        -1.0,
        -1.0,
        -1.0
      ],
      "type": "VEC3"
    },
    {
      "bufferView": 1,
      "componentType": 5126,
      "count": 14206,
      "max": [
        4.998228073120117,
        3.526524066925049
      ],
      "min": [
        -3.993256092071533,
        -2.740910053253174
      ],
      "type": "VEC2"
    },
    {
      "bufferView": 0,
      "componentType": 5125,
      "count": 36717,
      "type": "SCALAR"
    },
    {
      "bufferView": 2,
      "byteOffset": 340944,
      "componentType": 5126,
      "count": 3036,
      "max": [
        28.45874786376953,
        35.774253845214844,
        164.36514282226563
      ],
      "min": [
        -28.45885467529297,
        -125.61398315429688,
        86.16091918945313
      ],
      "type": "VEC3"
    },
    {
      "bufferView": 2,
      "byteOffset": 377376,
      "componentType": 5126,
      "count": 3036,
      "max": [
        1.0,
        1.0,
        1.0
      ],
      "min": [
        -1.0,
        -1.0,
        -1.0
      ],
      "type": "VEC3"
    },
    {
      "bufferView": 1,
      "byteOffset": 113648,
      "componentType": 5126,
      "count": 3036,
      "max": [
        3.0001931190490723,
        1.9953360557556152
      ],
      "min": [
        -0.9975870251655579,
        -0.99024498462677
      ],
      "type": "VEC2"
    },
    {
      "bufferView": 0,
      "byteOffset": 146868,
      "componentType": 5125,
      "count": 7779,
      "type": "SCALAR"
    },
    {
      "bufferView": 2,
      "byteOffset": 413808,
      "componentType": 5126,
      "count": 118,
      "max": [
        62.732810974121094,
        38.56171417236328,
        230.27435302734375
      ],
      "min": [
        -62.75701141357422,
        -132.68052673339844,
        56.78767776489258
      ],
      "type": "VEC3"
    },
    {
      "bufferView": 2,
      "byteOffset": 415224,
      "componentType": 5126,
      "count": 118,
      "max": [
        0.6757163405418396,
        0.4125919044017792,
        0.9921780228614807
      ],
      "min": [
        -0.6779768466949463,
        -1.0,
        -0.6759116053581238
      ],
      "type": "VEC3"
    },
    {
      "bufferView": 1,
      "byteOffset": 137936,
      "componentType": 5126,
      "count": 118,
      "max": [
        1.0,
        1.0
      ],
      "min": [
        -0.0,
        0.0
      ],
      "type": "VEC2"
    },
    {
      "bufferView": 0,
      "byteOffset": 177984,
      "componentType": 5125,
      "count": 282,
      "type": "SCALAR"
    },
    {
      "bufferView": 2,
      "byteOffset": 416640,
      "componentType": 5126,
      "count": 4689,
      "max": [
        292.4167175292969,
        448.0313720703125,
        321.34149169921875
      ],
      "min": [
        -292.4167175292969,
        -227.25796508789063,
        -82.41386413574219
      ],
      "type": "VEC3"
    },
    {
      "bufferView": 2,
      "byteOffset": 472908,
      "componentType": 5126,
      "count": 4689,
      "max": [
        1.0,
        0.9995258450508118,
        0.9999946355819702
      ],
      "min": [
        -0.9966840744018555,
        -1.0,
        -1.0
      ],
      "type": "VEC3"
    },
    {
      "bufferView": 1,
      "byteOffset": 138880,
      "componentType": 5126,
      "count": 4689,
      "max": [
        0.9976009726524353,
        0.9990450143814087
      ],
      "min": [
        0.000910000002477318,
        0.0019950000569224358
      ],
      "type": "VEC2"
    },
    {
      "bufferView": 0,
      "byteOffset": 179112,
      "componentType": 5125,
      "count": 12414,
      "type": "SCALAR"
    },
    {
      "bufferView": 2,
      "byteOffset": 529176,
      "componentType": 5126,
      "count": 1665,
      "max": [
        292.4179992675781,
        448.0313720703125,
        321.3502502441406
      ],
      "min": [
        -292.4179992675781,
        -227.25796508789063,
        -82.422607421875
      ],
      "type": "VEC3"
    },
    {
      "bufferView": 2,
      "byteOffset": 549156,
      "componentType": 5126,
      "count": 1665,
      "max": [
        1.0,
        0.951524019241333,
        0.9877598285675049
      ],
      "min": [
        -1.0,
        -0.951524019241333,
        -0.9877250790596008
      ],
      "type": "VEC3"
    },
    {
      "bufferView": 1,
      "byteOffset": 176392,
      "componentType": 5126,
      "count": 1665,
      "max": [
        0.9967319965362549,
        0.9905350208282471
      ],
      "min": [
        0.006016999948769808,
        0.031734999269247055
      ],
      "type": "VEC2"
    },
    {
      "bufferView": 0,
      "byteOffset": 228768,
      "componentType": 5125,
      "count": 4257,
      "type": "SCALAR"
    }
  ],
  "asset": {
    "extras": {
      "author": "fred346b (https://sketchfab.com/fred346b)",
      "license": "CC-BY-4.0 (http://creativecommons.org/licenses/by/4.0/)",
      "source": "https://sketchfab.com/3d-models/star-wars-galaxies-tie-advanced-749ea9d5e64947d1866976e66eccb842",
      "title": "Star Wars Galaxies - TIE Advanced"
    },
    "generator": "Sketchfab-16.63.0",
    "version": "2.0"
  },
  "bufferViews": [
    {
      "buffer": 0,
      "byteLength": 245796,
      "name": "floatBufferViews",
      "target": 34963
    },
    {
      "buffer": 0,
      "byteLength": 189712,
      "byteOffset": 245796,
      "byteStride": 8,
      "name": "floatBufferViews",
      "target": 34962
    },
    {
      "buffer": 0,
      "byteLength": 569136,
      "byteOffset": 435508,
      "byteStride": 12,
      "name": "floatBufferViews",
      "target": 34962
    }
  ],
  "buffers": [
    {
      "byteLength": 1004644,
      "uri": "scene.bin"
    }
  ],
  "extensionsUsed": [
    "KHR_materials_emissive_strength",
    "KHR_materials_specular",
    "KHR_materials_transmission"
  ],
  "images": [
    {
      "uri": "textures/Cockpit_baseColor.png"
    },
    {
      "uri": "textures/Cockpit_metallicRoughness.png"
    },
    {
      "uri": "textures/Cockpit_emissive.png"
    },
    {
      "uri": "textures/Cockpit_specularf0.png"
    },
    {
      "uri": "textures/Cockpit_Controls_baseColor.png"
    },
    {
      "uri": "textures/Cockpit_Controls_metallicRoughness.png"
    },
    {
      "uri": "textures/Cockpit_Controls_specularf0.png"
    },
    {
      "uri": "textures/Glass_baseColor.png"
    },
    {
      "uri": "textures/Glass_metallicRoughness.png"
    },
    {
      "uri": "textures/Glass_transmission.png"
    },
    {
      "uri": "textures/Glass_specularf0.png"
    },
    {
      "uri": "textures/Main_baseColor.png"
    },
    {
      "uri": "textures/Main_metallicRoughness.png"
    },
    {
      "uri": "textures/Main_specularf0.png"
    },
    {
      "uri": "textures/Wing_baseColor.png"
    },
    {
      "uri": "textures/Wing_metallicRoughness.png"
    },
    {
      "uri": "textures/Wing_specularf0.png"
    }
  ],
  "materials": [
    {
      "doubleSided": true,
      "emissiveFactor": [
        1.0,
        1.0,
        1.0
      ],
      "emissiveTexture": {
        "index": 2
      },
      "extensions": {
        "KHR_materials_emissive_strength": {
          "emissiveStrength": 5.0
        },
        "KHR_materials_specular": {
          "specularColorFactor": [
            1.0,
            1.0,
            1.0
          ],
          "specularFactor": 1.0,
          "specularTexture": {
            "index": 3
          }
        }
      },
      "name": "Cockpit",
      "pbrMetallicRoughness": {
        "baseColorTexture": {
          "index": 0
        },
        "metallicRoughnessTexture": {
          "index": 1
        }
      }
    },
    {
      "doubleSided": true,
      "extensions": {
        "KHR_materials_specular": {
          "specularColorFactor": [
            1.0,
            1.0,
            1.0
          ],
          "specularFactor": 1.0,
          "specularTexture": {
            "index": 6
          }
        }
      },
      "name": "Cockpit_Controls",
      "pbrMetallicRoughness": {
        "baseColorTexture": {
          "index": 4
        },
        "metallicRoughnessTexture": {
          "index": 5
        }
      }
    },
    {
      "alphaMode": "BLEND",
      "doubleSided": true,
      "extensions": {
        "KHR_materials_specular": {
          "specularColorFactor": [
            1.0,
            1.0,
            1.0
          ],
          "specularFactor": 1.0,
          "specularTexture": {
            "index": 10
          }
        },
        "KHR_materials_transmission": {
          "transmissionFactor": 1.0,
          "transmissionTexture": {
            "index": 9
          }
        }
      },
      "name": "Glass",
      "pbrMetallicRoughness": {
        "baseColorTexture": {
          "index": 7
        },
        "metallicRoughnessTexture": {
          "index": 8
        }
      }
    },
    {
      "doubleSided": true,
      "extensions": {
        "KHR_materials_specular": {
          "specularColorFactor": [
            1.0,
            1.0,
            1.0
          ],
          "specularFactor": 1.0,
          "specularTexture": {
            "index": 13
          }
        }
      },
      "name": "Main",
      "pbrMetallicRoughness": {
        "baseColorTexture": {
          "index": 11
        },
        "metallicRoughnessTexture": {
          "index": 12
        }
      }
    },
    {
      "doubleSided": true,
      "extensions": {
        "KHR_materials_specular": {
          "specularColorFactor": [
            1.0,
            1.0,
            1.0
          ],
          "specularFactor": 1.0,
          "specularTexture": {
            "index": 16
          }
        }
      },
      "name": "Wing",
      "pbrMetallicRoughness": {
        "baseColorTexture": {
          "index": 14
        },
        "metallicRoughnessTexture": {
          "index": 15
        }
      }
    }
  ],
  "meshes": [
    {
      "name": "Object_0",
      "primitives": [
        {
          "attributes": {
            "NORMAL": 1,
            "POSITION": 0,
            "TEXCOORD_0": 2
          },
          "indices": 3,
          "material": 0,
          "mode": 4
        }
      ]
    },
    {
      "name": "Object_1",
      "primitives": [
        {
          "attributes": {
            "NORMAL": 5,
            "POSITION": 4,
            "TEXCOORD_0": 6
          },
          "indices": 7,
          "material": 1,
          "mode": 4
        }
      ]
    },
    {
      "name": "Object_2",
      "primitives": [
        {
          "attributes": {
            "NORMAL": 9,
            "POSITION": 8,
            "TEXCOORD_0": 10
          },
          "indices": 11,
          "material": 2,
          "mode": 4
        }
      ]
    },
    {
      "name": "Object_3",
      "primitives": [
        {
          "attributes": {
            "NORMAL": 13,
            "POSITION": 12,
            "TEXCOORD_0": 14
          },
          "indices": 15,
          "material": 3,
          "mode": 4
        }
      ]
    },
    {
      "name": "Object_4",
      "primitives": [
        {
          "attributes": {
            "NORMAL": 17,
            "POSITION": 16,
            "TEXCOORD_0": 18
          },
          "indices": 19,
          "material": 4,
          "mode": 4
        }
      ]
    }
  ],
  "nodes": [
    {
      "children": [
        1
      ],
      "matrix": [
        1.0,
        0.0,
        0.0,
        0.0,
        0.0,
        2.220446049250313e-16,
        -1.0,
        0.0,
        0.0,
        1.0,
        2.220446049250313e-16,
        0.0,
        0.0,
        0.0,
        0.0,
        1.0
      ],
      "name": "Sketchfab_model"
    },
    {
      "children": [
        2,
        3,
        4,
        5,
        6
      ],
      "name": "TIE Advanced X1.obj.cleaner.materialmerger.gles"
    },
    {
      "mesh": 0,
      "name": "Object_2"
    },
    {
      "mesh": 1,
      "name": "Object_3"
    },
    {
      "mesh": 2,
      "name": "Object_4"
    },
    {
      "mesh": 3,
      "name": "Object_5"
    },
    {
      "mesh": 4,
      "name": "Object_6"
    }
  ],
  "samplers": [
    {
      "magFilter": 9729,
      "minFilter": 9987,
      "wrapS": 10497,
      "wrapT": 10497
    }
  ],
  "scene": 0,
  "scenes": [
    {
      "name": "Sketchfab_Scene",
      "nodes": [
        0
      ]
    }
  ],
  "textures": [
    {
      "sampler": 0,
      "source": 0
    },
    {
      "sampler": 0,
      "source": 1
    },
    {
      "sampler": 0,
      "source": 2
    },
    {
      "sampler": 0,
      "source": 3
    },
    {
      "sampler": 0,
      "source": 4
    },
    {
      "sampler": 0,
      "source": 5
    },
    {
      "sampler": 0,
      "source": 6
    },
    {
      "sampler": 0,
      "source": 7
    },
    {
      "sampler": 0,
      "source": 8
    },
    {
      "sampler": 0,
      "source": 9
    },
    {
      "sampler": 0,
      "source": 10
    },
    {
      "sampler": 0,
      "source": 11
    },
    {
      "sampler": 0,
      "source": 12
    },
    {
      "sampler": 0,
      "source": 13
    },
    {
      "sampler": 0,
      "source": 14
    },
    {
      "sampler": 0,
      "source": 15
    },
    {
      "sampler": 0,
      "source": 16
    }
  ]
}
